<mxfile host="app.diagrams.net" modified="2021-03-03T02:03:38.566Z" agent="5.0 (X11; Linux x86_64) AppleWebKit/537.36 (KHTML, like Gecko) Chrome/88.0.4324.182 Safari/537.36" etag="SHNHtCxCPT4xLeqyH3Ui" version="14.4.3" type="github">
  <diagram id="5plZKbPlIHDqdeCXFDGE" name="Page-1">
    <mxGraphModel dx="868" dy="496" grid="1" gridSize="10" guides="1" tooltips="1" connect="1" arrows="1" fold="1" page="1" pageScale="1" pageWidth="827" pageHeight="1169" background="#F4F3ED" math="0" shadow="0">
      <root>
        <mxCell id="0" />
        <mxCell id="1" parent="0" />
        <mxCell id="IZT8jsWd7h7Ih6-XtFO0-38" style="rounded=1;sketch=0;orthogonalLoop=1;jettySize=auto;html=1;entryX=1;entryY=0.5;entryDx=0;entryDy=0;strokeColor=#E07A5F;fillColor=#F2CC8F;fontColor=#393C56;" parent="1" source="IZT8jsWd7h7Ih6-XtFO0-1" target="IZT8jsWd7h7Ih6-XtFO0-17" edge="1">
          <mxGeometry relative="1" as="geometry" />
        </mxCell>
        <mxCell id="IZT8jsWd7h7Ih6-XtFO0-51" style="edgeStyle=none;rounded=1;sketch=0;orthogonalLoop=1;jettySize=auto;html=1;entryX=1;entryY=0.5;entryDx=0;entryDy=0;strokeColor=#E07A5F;fillColor=#F2CC8F;fontColor=#393C56;" parent="1" source="IZT8jsWd7h7Ih6-XtFO0-1" target="IZT8jsWd7h7Ih6-XtFO0-45" edge="1">
          <mxGeometry relative="1" as="geometry" />
        </mxCell>
        <mxCell id="IZT8jsWd7h7Ih6-XtFO0-52" style="edgeStyle=none;rounded=1;sketch=0;orthogonalLoop=1;jettySize=auto;html=1;entryX=1;entryY=0.5;entryDx=0;entryDy=0;strokeColor=#E07A5F;fillColor=#F2CC8F;fontColor=#393C56;" parent="1" source="IZT8jsWd7h7Ih6-XtFO0-1" target="IZT8jsWd7h7Ih6-XtFO0-46" edge="1">
          <mxGeometry relative="1" as="geometry" />
        </mxCell>
        <mxCell id="IZT8jsWd7h7Ih6-XtFO0-55" style="edgeStyle=none;rounded=1;sketch=0;orthogonalLoop=1;jettySize=auto;html=1;entryX=1;entryY=0.5;entryDx=0;entryDy=0;strokeColor=#E07A5F;fillColor=#F2CC8F;fontColor=#393C56;" parent="1" source="IZT8jsWd7h7Ih6-XtFO0-1" target="IZT8jsWd7h7Ih6-XtFO0-54" edge="1">
          <mxGeometry relative="1" as="geometry" />
        </mxCell>
        <mxCell id="IZT8jsWd7h7Ih6-XtFO0-1" value="Instructor" style="shape=umlActor;verticalLabelPosition=bottom;verticalAlign=top;html=1;outlineConnect=0;fillColor=#F2CC8F;strokeColor=#E07A5F;fontColor=#393C56;" parent="1" vertex="1">
          <mxGeometry x="760" y="580" width="30" height="60" as="geometry" />
        </mxCell>
        <mxCell id="IZT8jsWd7h7Ih6-XtFO0-56" style="edgeStyle=none;rounded=1;sketch=0;orthogonalLoop=1;jettySize=auto;html=1;entryX=0;entryY=0.5;entryDx=0;entryDy=0;strokeColor=#E07A5F;fillColor=#F2CC8F;fontColor=#393C56;" parent="1" source="IZT8jsWd7h7Ih6-XtFO0-2" target="IZT8jsWd7h7Ih6-XtFO0-54" edge="1">
          <mxGeometry relative="1" as="geometry" />
        </mxCell>
        <mxCell id="IZT8jsWd7h7Ih6-XtFO0-59" style="edgeStyle=none;rounded=1;sketch=0;orthogonalLoop=1;jettySize=auto;html=1;entryX=0;entryY=0.5;entryDx=0;entryDy=0;strokeColor=#E07A5F;fillColor=#F2CC8F;fontColor=#393C56;" parent="1" source="IZT8jsWd7h7Ih6-XtFO0-2" target="IZT8jsWd7h7Ih6-XtFO0-68" edge="1">
          <mxGeometry relative="1" as="geometry" />
        </mxCell>
        <mxCell id="IZT8jsWd7h7Ih6-XtFO0-63" style="edgeStyle=none;rounded=1;sketch=0;orthogonalLoop=1;jettySize=auto;html=1;entryX=0;entryY=0.5;entryDx=0;entryDy=0;strokeColor=#E07A5F;fillColor=#F2CC8F;fontColor=#393C56;" parent="1" source="IZT8jsWd7h7Ih6-XtFO0-2" target="IZT8jsWd7h7Ih6-XtFO0-62" edge="1">
          <mxGeometry relative="1" as="geometry" />
        </mxCell>
        <mxCell id="IZT8jsWd7h7Ih6-XtFO0-65" style="edgeStyle=none;rounded=1;sketch=0;orthogonalLoop=1;jettySize=auto;html=1;entryX=0;entryY=0.5;entryDx=0;entryDy=0;strokeColor=#E07A5F;fillColor=#F2CC8F;fontColor=#393C56;" parent="1" source="IZT8jsWd7h7Ih6-XtFO0-2" target="IZT8jsWd7h7Ih6-XtFO0-64" edge="1">
          <mxGeometry relative="1" as="geometry" />
        </mxCell>
        <mxCell id="IZT8jsWd7h7Ih6-XtFO0-67" style="edgeStyle=none;rounded=1;sketch=0;orthogonalLoop=1;jettySize=auto;html=1;entryX=0;entryY=0.5;entryDx=0;entryDy=0;strokeColor=#E07A5F;fillColor=#F2CC8F;fontColor=#393C56;" parent="1" source="IZT8jsWd7h7Ih6-XtFO0-2" target="IZT8jsWd7h7Ih6-XtFO0-66" edge="1">
          <mxGeometry relative="1" as="geometry" />
        </mxCell>
        <mxCell id="IZT8jsWd7h7Ih6-XtFO0-2" value="Student" style="shape=umlActor;verticalLabelPosition=bottom;verticalAlign=top;html=1;outlineConnect=0;fillColor=#F2CC8F;strokeColor=#E07A5F;fontColor=#393C56;" parent="1" vertex="1">
          <mxGeometry x="70" y="890" width="30" height="60" as="geometry" />
        </mxCell>
        <mxCell id="IZT8jsWd7h7Ih6-XtFO0-3" value="Authenticate" style="ellipse;whiteSpace=wrap;html=1;fillColor=#F2CC8F;strokeColor=#E07A5F;fontColor=#393C56;" parent="1" vertex="1">
          <mxGeometry x="260" width="120" height="60" as="geometry" />
        </mxCell>
        <mxCell id="IZT8jsWd7h7Ih6-XtFO0-5" style="orthogonalLoop=1;jettySize=auto;html=1;entryX=0;entryY=0.5;entryDx=0;entryDy=0;strokeColor=#E07A5F;fontColor=#393C56;labelBackgroundColor=#F4F1DE;" parent="1" source="IZT8jsWd7h7Ih6-XtFO0-4" target="IZT8jsWd7h7Ih6-XtFO0-3" edge="1">
          <mxGeometry relative="1" as="geometry" />
        </mxCell>
        <mxCell id="IZT8jsWd7h7Ih6-XtFO0-7" style="edgeStyle=none;orthogonalLoop=1;jettySize=auto;html=1;entryX=0;entryY=0.5;entryDx=0;entryDy=0;strokeColor=#E07A5F;fontColor=#393C56;labelBackgroundColor=#F4F1DE;" parent="1" source="IZT8jsWd7h7Ih6-XtFO0-4" target="IZT8jsWd7h7Ih6-XtFO0-6" edge="1">
          <mxGeometry relative="1" as="geometry">
            <mxPoint x="290" y="140" as="targetPoint" />
          </mxGeometry>
        </mxCell>
        <mxCell id="IZT8jsWd7h7Ih6-XtFO0-9" style="edgeStyle=none;orthogonalLoop=1;jettySize=auto;html=1;entryX=0;entryY=0.5;entryDx=0;entryDy=0;strokeColor=#E07A5F;fontColor=#393C56;labelBackgroundColor=#F4F1DE;" parent="1" source="IZT8jsWd7h7Ih6-XtFO0-4" target="IZT8jsWd7h7Ih6-XtFO0-8" edge="1">
          <mxGeometry relative="1" as="geometry" />
        </mxCell>
        <mxCell id="IZT8jsWd7h7Ih6-XtFO0-12" style="edgeStyle=none;orthogonalLoop=1;jettySize=auto;html=1;entryX=0;entryY=0.5;entryDx=0;entryDy=0;strokeColor=#E07A5F;fontColor=#393C56;labelBackgroundColor=#F4F1DE;" parent="1" source="IZT8jsWd7h7Ih6-XtFO0-4" target="IZT8jsWd7h7Ih6-XtFO0-11" edge="1">
          <mxGeometry relative="1" as="geometry" />
        </mxCell>
        <mxCell id="IZT8jsWd7h7Ih6-XtFO0-14" style="edgeStyle=none;orthogonalLoop=1;jettySize=auto;html=1;entryX=0;entryY=0.5;entryDx=0;entryDy=0;strokeColor=#E07A5F;fontColor=#393C56;labelBackgroundColor=#F4F1DE;" parent="1" source="IZT8jsWd7h7Ih6-XtFO0-4" target="IZT8jsWd7h7Ih6-XtFO0-13" edge="1">
          <mxGeometry relative="1" as="geometry" />
        </mxCell>
        <mxCell id="IZT8jsWd7h7Ih6-XtFO0-4" value="User" style="shape=umlActor;verticalLabelPosition=bottom;verticalAlign=top;html=1;outlineConnect=0;fillColor=#F2CC8F;strokeColor=#E07A5F;fontColor=#393C56;" parent="1" vertex="1">
          <mxGeometry x="80" y="160" width="30" height="60" as="geometry" />
        </mxCell>
        <mxCell id="IZT8jsWd7h7Ih6-XtFO0-6" value="Xem danh sách các khóa học" style="ellipse;whiteSpace=wrap;html=1;fillColor=#F2CC8F;strokeColor=#E07A5F;fontColor=#393C56;" parent="1" vertex="1">
          <mxGeometry x="260" y="80" width="120" height="60" as="geometry" />
        </mxCell>
        <mxCell id="IZT8jsWd7h7Ih6-XtFO0-8" value="Cập nhật thông tin cá nhân" style="ellipse;whiteSpace=wrap;html=1;fillColor=#F2CC8F;strokeColor=#E07A5F;fontColor=#393C56;" parent="1" vertex="1">
          <mxGeometry x="260" y="160" width="120" height="60" as="geometry" />
        </mxCell>
        <mxCell id="IZT8jsWd7h7Ih6-XtFO0-11" value="Nhắn tin" style="ellipse;whiteSpace=wrap;html=1;fillColor=#F2CC8F;strokeColor=#E07A5F;fontColor=#393C56;" parent="1" vertex="1">
          <mxGeometry x="260" y="240" width="120" height="60" as="geometry" />
        </mxCell>
        <mxCell id="IZT8jsWd7h7Ih6-XtFO0-13" value="Gọi video" style="ellipse;whiteSpace=wrap;html=1;fillColor=#F2CC8F;strokeColor=#E07A5F;fontColor=#393C56;" parent="1" vertex="1">
          <mxGeometry x="260" y="320" width="120" height="60" as="geometry" />
        </mxCell>
        <mxCell id="IZT8jsWd7h7Ih6-XtFO0-47" value="include" style="edgeStyle=none;rounded=1;sketch=0;orthogonalLoop=1;jettySize=auto;html=1;entryX=1;entryY=0.5;entryDx=0;entryDy=0;strokeColor=#E07A5F;fillColor=#F2CC8F;fontColor=#393C56;dashed=1;" parent="1" source="IZT8jsWd7h7Ih6-XtFO0-17" target="IZT8jsWd7h7Ih6-XtFO0-40" edge="1">
          <mxGeometry relative="1" as="geometry" />
        </mxCell>
        <mxCell id="IZT8jsWd7h7Ih6-XtFO0-74" value="include" style="edgeStyle=none;rounded=1;sketch=0;orthogonalLoop=1;jettySize=auto;html=1;entryX=1;entryY=0.5;entryDx=0;entryDy=0;dashed=1;strokeColor=#E07A5F;fillColor=#F2CC8F;fontColor=#393C56;" parent="1" source="IZT8jsWd7h7Ih6-XtFO0-17" target="IZT8jsWd7h7Ih6-XtFO0-73" edge="1">
          <mxGeometry relative="1" as="geometry" />
        </mxCell>
        <mxCell id="IZT8jsWd7h7Ih6-XtFO0-17" value="Đăng khóa học" style="ellipse;whiteSpace=wrap;html=1;fillColor=#F2CC8F;strokeColor=#E07A5F;fontColor=#393C56;" parent="1" vertex="1">
          <mxGeometry x="460" y="450" width="120" height="60" as="geometry" />
        </mxCell>
        <mxCell id="IZT8jsWd7h7Ih6-XtFO0-19" value="Quản lý người dùng" style="ellipse;whiteSpace=wrap;html=1;fillColor=#F2CC8F;strokeColor=#E07A5F;fontColor=#393C56;" parent="1" vertex="1">
          <mxGeometry x="480" width="120" height="60" as="geometry" />
        </mxCell>
        <mxCell id="IZT8jsWd7h7Ih6-XtFO0-20" style="orthogonalLoop=1;jettySize=auto;html=1;entryX=1;entryY=0.5;entryDx=0;entryDy=0;strokeColor=#E07A5F;fontColor=#393C56;labelBackgroundColor=#F4F1DE;" parent="1" source="IZT8jsWd7h7Ih6-XtFO0-25" target="IZT8jsWd7h7Ih6-XtFO0-19" edge="1">
          <mxGeometry relative="1" as="geometry" />
        </mxCell>
        <mxCell id="IZT8jsWd7h7Ih6-XtFO0-21" style="edgeStyle=none;orthogonalLoop=1;jettySize=auto;html=1;entryX=1;entryY=0.5;entryDx=0;entryDy=0;strokeColor=#E07A5F;fontColor=#393C56;labelBackgroundColor=#F4F1DE;" parent="1" source="IZT8jsWd7h7Ih6-XtFO0-25" target="IZT8jsWd7h7Ih6-XtFO0-26" edge="1">
          <mxGeometry relative="1" as="geometry">
            <mxPoint x="440" y="160" as="targetPoint" />
          </mxGeometry>
        </mxCell>
        <mxCell id="IZT8jsWd7h7Ih6-XtFO0-22" style="edgeStyle=none;orthogonalLoop=1;jettySize=auto;html=1;entryX=1;entryY=0.5;entryDx=0;entryDy=0;strokeColor=#E07A5F;fontColor=#393C56;labelBackgroundColor=#F4F1DE;" parent="1" source="IZT8jsWd7h7Ih6-XtFO0-25" target="IZT8jsWd7h7Ih6-XtFO0-27" edge="1">
          <mxGeometry relative="1" as="geometry" />
        </mxCell>
        <mxCell id="IZT8jsWd7h7Ih6-XtFO0-23" style="edgeStyle=none;orthogonalLoop=1;jettySize=auto;html=1;entryX=1;entryY=0.5;entryDx=0;entryDy=0;strokeColor=#E07A5F;fontColor=#393C56;labelBackgroundColor=#F4F1DE;" parent="1" source="IZT8jsWd7h7Ih6-XtFO0-25" target="IZT8jsWd7h7Ih6-XtFO0-28" edge="1">
          <mxGeometry relative="1" as="geometry" />
        </mxCell>
        <mxCell id="IZT8jsWd7h7Ih6-XtFO0-25" value="Moderator" style="shape=umlActor;verticalLabelPosition=bottom;verticalAlign=top;html=1;outlineConnect=0;fillColor=#F2CC8F;strokeColor=#E07A5F;fontColor=#393C56;" parent="1" vertex="1">
          <mxGeometry x="760" y="110" width="30" height="60" as="geometry" />
        </mxCell>
        <mxCell id="IZT8jsWd7h7Ih6-XtFO0-26" value="Quản lý khóa học" style="ellipse;whiteSpace=wrap;html=1;fillColor=#F2CC8F;strokeColor=#E07A5F;fontColor=#393C56;" parent="1" vertex="1">
          <mxGeometry x="480" y="80" width="120" height="60" as="geometry" />
        </mxCell>
        <mxCell id="IZT8jsWd7h7Ih6-XtFO0-27" value="Quản lý tag" style="ellipse;whiteSpace=wrap;html=1;fillColor=#F2CC8F;strokeColor=#E07A5F;fontColor=#393C56;" parent="1" vertex="1">
          <mxGeometry x="480" y="160" width="120" height="60" as="geometry" />
        </mxCell>
        <mxCell id="IZT8jsWd7h7Ih6-XtFO0-28" value="Quản lý khuyễn mãi" style="ellipse;whiteSpace=wrap;html=1;fillColor=#F2CC8F;strokeColor=#E07A5F;fontColor=#393C56;" parent="1" vertex="1">
          <mxGeometry x="480" y="240" width="120" height="60" as="geometry" />
        </mxCell>
        <mxCell id="IZT8jsWd7h7Ih6-XtFO0-33" style="edgeStyle=none;orthogonalLoop=1;jettySize=auto;html=1;endArrow=block;endFill=0;strokeColor=#E07A5F;fontColor=#393C56;labelBackgroundColor=#F4F1DE;" parent="1" source="IZT8jsWd7h7Ih6-XtFO0-30" edge="1">
          <mxGeometry relative="1" as="geometry">
            <mxPoint x="775" y="200" as="targetPoint" />
          </mxGeometry>
        </mxCell>
        <mxCell id="IZT8jsWd7h7Ih6-XtFO0-37" style="edgeStyle=none;orthogonalLoop=1;jettySize=auto;html=1;entryX=1;entryY=0.5;entryDx=0;entryDy=0;endArrow=classic;endFill=1;strokeColor=#E07A5F;fontColor=#393C56;labelBackgroundColor=#F4F1DE;" parent="1" source="IZT8jsWd7h7Ih6-XtFO0-30" target="IZT8jsWd7h7Ih6-XtFO0-35" edge="1">
          <mxGeometry relative="1" as="geometry" />
        </mxCell>
        <mxCell id="IZT8jsWd7h7Ih6-XtFO0-30" value="Administrator" style="shape=umlActor;verticalLabelPosition=bottom;verticalAlign=top;html=1;outlineConnect=0;fillColor=#F2CC8F;strokeColor=#E07A5F;fontColor=#393C56;" parent="1" vertex="1">
          <mxGeometry x="760" y="290" width="30" height="60" as="geometry" />
        </mxCell>
        <mxCell id="IZT8jsWd7h7Ih6-XtFO0-35" value="Quản lý admin/mod" style="ellipse;whiteSpace=wrap;html=1;fillColor=#F2CC8F;strokeColor=#E07A5F;fontColor=#393C56;" parent="1" vertex="1">
          <mxGeometry x="480" y="320" width="120" height="60" as="geometry" />
        </mxCell>
        <mxCell id="IZT8jsWd7h7Ih6-XtFO0-48" value="include" style="edgeStyle=none;rounded=1;sketch=0;orthogonalLoop=1;jettySize=auto;html=1;entryX=1.009;entryY=0.617;entryDx=0;entryDy=0;entryPerimeter=0;dashed=1;strokeColor=#E07A5F;fillColor=#F2CC8F;fontColor=#393C56;" parent="1" source="IZT8jsWd7h7Ih6-XtFO0-40" target="IZT8jsWd7h7Ih6-XtFO0-43" edge="1">
          <mxGeometry relative="1" as="geometry" />
        </mxCell>
        <mxCell id="IZT8jsWd7h7Ih6-XtFO0-40" value="Tạo các bài học" style="ellipse;whiteSpace=wrap;html=1;rounded=0;sketch=0;strokeColor=#E07A5F;fillColor=#F2CC8F;fontColor=#393C56;" parent="1" vertex="1">
          <mxGeometry x="300" y="520" width="110" height="60" as="geometry" />
        </mxCell>
        <mxCell id="IZT8jsWd7h7Ih6-XtFO0-50" value="extend" style="edgeStyle=none;rounded=1;sketch=0;orthogonalLoop=1;jettySize=auto;html=1;entryX=0;entryY=0.5;entryDx=0;entryDy=0;dashed=1;strokeColor=#E07A5F;fillColor=#F2CC8F;fontColor=#393C56;" parent="1" source="IZT8jsWd7h7Ih6-XtFO0-42" target="IZT8jsWd7h7Ih6-XtFO0-40" edge="1">
          <mxGeometry relative="1" as="geometry" />
        </mxCell>
        <mxCell id="IZT8jsWd7h7Ih6-XtFO0-42" value="Tạo các câu hỏi" style="ellipse;whiteSpace=wrap;html=1;rounded=0;sketch=0;strokeColor=#E07A5F;fillColor=#F2CC8F;fontColor=#393C56;" parent="1" vertex="1">
          <mxGeometry x="100" y="550" width="110" height="60" as="geometry" />
        </mxCell>
        <mxCell id="IZT8jsWd7h7Ih6-XtFO0-43" value="Thêm nội dung, video bài học" style="ellipse;whiteSpace=wrap;html=1;rounded=0;sketch=0;strokeColor=#E07A5F;fillColor=#F2CC8F;fontColor=#393C56;" parent="1" vertex="1">
          <mxGeometry x="110" y="420" width="110" height="60" as="geometry" />
        </mxCell>
        <mxCell id="IZT8jsWd7h7Ih6-XtFO0-45" value="Tạo phòng stream/call cho khóa học" style="ellipse;whiteSpace=wrap;html=1;rounded=0;sketch=0;strokeColor=#E07A5F;fillColor=#F2CC8F;fontColor=#393C56;" parent="1" vertex="1">
          <mxGeometry x="380" y="600" width="110" height="60" as="geometry" />
        </mxCell>
        <mxCell id="IZT8jsWd7h7Ih6-XtFO0-53" value="Thông báo đến người đã mua" style="edgeStyle=none;rounded=1;sketch=0;orthogonalLoop=1;jettySize=auto;html=1;strokeColor=#E07A5F;fillColor=#F2CC8F;fontColor=#393C56;" parent="1" source="IZT8jsWd7h7Ih6-XtFO0-46" target="IZT8jsWd7h7Ih6-XtFO0-2" edge="1">
          <mxGeometry relative="1" as="geometry" />
        </mxCell>
        <mxCell id="IZT8jsWd7h7Ih6-XtFO0-46" value="Đặt lịch stream/call" style="ellipse;whiteSpace=wrap;html=1;rounded=0;sketch=0;strokeColor=#E07A5F;fillColor=#F2CC8F;fontColor=#393C56;" parent="1" vertex="1">
          <mxGeometry x="380" y="680" width="110" height="60" as="geometry" />
        </mxCell>
        <mxCell id="IZT8jsWd7h7Ih6-XtFO0-54" value="Gửi tài nguyên vào khóa học" style="ellipse;whiteSpace=wrap;html=1;rounded=0;sketch=0;strokeColor=#E07A5F;fillColor=#F2CC8F;fontColor=#393C56;" parent="1" vertex="1">
          <mxGeometry x="380" y="780" width="110" height="60" as="geometry" />
        </mxCell>
        <mxCell id="IZT8jsWd7h7Ih6-XtFO0-57" value="Mua khóa học" style="ellipse;whiteSpace=wrap;html=1;rounded=0;sketch=0;strokeColor=#E07A5F;fillColor=#F2CC8F;fontColor=#393C56;" parent="1" vertex="1">
          <mxGeometry x="580" y="760" width="110" height="60" as="geometry" />
        </mxCell>
        <mxCell id="IZT8jsWd7h7Ih6-XtFO0-61" value="extend" style="edgeStyle=none;rounded=1;sketch=0;orthogonalLoop=1;jettySize=auto;html=1;entryX=1;entryY=0.5;entryDx=0;entryDy=0;strokeColor=#E07A5F;fillColor=#F2CC8F;fontColor=#393C56;dashed=1;" parent="1" source="IZT8jsWd7h7Ih6-XtFO0-60" target="IZT8jsWd7h7Ih6-XtFO0-57" edge="1">
          <mxGeometry relative="1" as="geometry" />
        </mxCell>
        <mxCell id="IZT8jsWd7h7Ih6-XtFO0-60" value="Đánh giá khóa học" style="ellipse;whiteSpace=wrap;html=1;rounded=0;sketch=0;strokeColor=#E07A5F;fillColor=#F2CC8F;fontColor=#393C56;" parent="1" vertex="1">
          <mxGeometry x="710" y="820" width="110" height="60" as="geometry" />
        </mxCell>
        <mxCell id="IZT8jsWd7h7Ih6-XtFO0-62" value="Đánh giá Instructor" style="ellipse;whiteSpace=wrap;html=1;rounded=0;sketch=0;strokeColor=#E07A5F;fillColor=#F2CC8F;fontColor=#393C56;" parent="1" vertex="1">
          <mxGeometry x="380" y="940" width="110" height="60" as="geometry" />
        </mxCell>
        <mxCell id="IZT8jsWd7h7Ih6-XtFO0-64" value="Follow Instructor" style="ellipse;whiteSpace=wrap;html=1;rounded=0;sketch=0;strokeColor=#E07A5F;fillColor=#F2CC8F;fontColor=#393C56;" parent="1" vertex="1">
          <mxGeometry x="380" y="1020" width="110" height="60" as="geometry" />
        </mxCell>
        <mxCell id="IZT8jsWd7h7Ih6-XtFO0-66" value="Thêm tag yêu thích" style="ellipse;whiteSpace=wrap;html=1;rounded=0;sketch=0;strokeColor=#E07A5F;fillColor=#F2CC8F;fontColor=#393C56;" parent="1" vertex="1">
          <mxGeometry x="380" y="1100" width="110" height="60" as="geometry" />
        </mxCell>
        <mxCell id="IZT8jsWd7h7Ih6-XtFO0-69" value="include" style="edgeStyle=none;rounded=1;sketch=0;orthogonalLoop=1;jettySize=auto;html=1;entryX=0;entryY=0.5;entryDx=0;entryDy=0;strokeColor=#E07A5F;fillColor=#F2CC8F;fontColor=#393C56;dashed=1;" parent="1" source="IZT8jsWd7h7Ih6-XtFO0-68" target="IZT8jsWd7h7Ih6-XtFO0-57" edge="1">
          <mxGeometry relative="1" as="geometry" />
        </mxCell>
        <mxCell id="IZT8jsWd7h7Ih6-XtFO0-68" value="Học khóa học" style="ellipse;whiteSpace=wrap;html=1;rounded=0;sketch=0;strokeColor=#E07A5F;fillColor=#F2CC8F;fontColor=#393C56;" parent="1" vertex="1">
          <mxGeometry x="380" y="860" width="110" height="60" as="geometry" />
        </mxCell>
        <mxCell id="IZT8jsWd7h7Ih6-XtFO0-70" value="Khóa học:&lt;br&gt;- Full stream&lt;br&gt;- Recorded&lt;br&gt;- Mix" style="shape=note;whiteSpace=wrap;html=1;backgroundOutline=1;darkOpacity=0.05;rounded=0;sketch=0;strokeColor=#d6b656;fillColor=#fff2cc;align=left;" parent="1" vertex="1">
          <mxGeometry x="600" y="420" width="90" height="110" as="geometry" />
        </mxCell>
        <mxCell id="IZT8jsWd7h7Ih6-XtFO0-72" value="extend" style="edgeStyle=none;rounded=1;sketch=0;orthogonalLoop=1;jettySize=auto;html=1;entryX=1;entryY=0.5;entryDx=0;entryDy=0;dashed=1;strokeColor=#E07A5F;fillColor=#F2CC8F;fontColor=#393C56;" parent="1" source="IZT8jsWd7h7Ih6-XtFO0-71" target="IZT8jsWd7h7Ih6-XtFO0-68" edge="1">
          <mxGeometry relative="1" as="geometry" />
        </mxCell>
        <mxCell id="IZT8jsWd7h7Ih6-XtFO0-71" value="Tham gia phòng họp trực tuyến" style="ellipse;whiteSpace=wrap;html=1;rounded=0;sketch=0;strokeColor=#E07A5F;fillColor=#F2CC8F;fontColor=#393C56;" parent="1" vertex="1">
          <mxGeometry x="580" y="860" width="110" height="60" as="geometry" />
        </mxCell>
        <mxCell id="IZT8jsWd7h7Ih6-XtFO0-73" value="Thêm tag" style="ellipse;whiteSpace=wrap;html=1;rounded=0;sketch=0;strokeColor=#E07A5F;fillColor=#F2CC8F;fontColor=#393C56;" parent="1" vertex="1">
          <mxGeometry x="300" y="410" width="110" height="60" as="geometry" />
        </mxCell>
        <mxCell id="dZKI4s27ZK44j0xTkER0-1" value="Xem nội dung khóa học có sẵn" style="ellipse;whiteSpace=wrap;html=1;rounded=0;sketch=0;strokeColor=#E07A5F;fillColor=#F2CC8F;fontColor=#393C56;" vertex="1" parent="1">
          <mxGeometry x="580" y="950" width="110" height="60" as="geometry" />
        </mxCell>
        <mxCell id="dZKI4s27ZK44j0xTkER0-3" value="extend" style="edgeStyle=none;rounded=1;sketch=0;orthogonalLoop=1;jettySize=auto;html=1;entryX=1;entryY=1;entryDx=0;entryDy=0;dashed=1;strokeColor=#E07A5F;fillColor=#F2CC8F;fontColor=#393C56;exitX=0;exitY=0.5;exitDx=0;exitDy=0;" edge="1" parent="1" source="dZKI4s27ZK44j0xTkER0-1" target="IZT8jsWd7h7Ih6-XtFO0-68">
          <mxGeometry relative="1" as="geometry">
            <mxPoint x="590" y="900" as="sourcePoint" />
            <mxPoint x="500" y="900" as="targetPoint" />
          </mxGeometry>
        </mxCell>
        <mxCell id="dZKI4s27ZK44j0xTkER0-4" value="Note" style="ellipse;whiteSpace=wrap;html=1;rounded=0;sketch=0;strokeColor=#E07A5F;fillColor=#F2CC8F;fontColor=#393C56;" vertex="1" parent="1">
          <mxGeometry x="717" y="920" width="110" height="60" as="geometry" />
        </mxCell>
        <mxCell id="dZKI4s27ZK44j0xTkER0-6" value="extend" style="edgeStyle=none;rounded=1;sketch=0;orthogonalLoop=1;jettySize=auto;html=1;entryX=1;entryY=0.5;entryDx=0;entryDy=0;dashed=1;strokeColor=#E07A5F;fillColor=#F2CC8F;fontColor=#393C56;" edge="1" parent="1" source="dZKI4s27ZK44j0xTkER0-4" target="dZKI4s27ZK44j0xTkER0-1">
          <mxGeometry relative="1" as="geometry">
            <mxPoint x="688.05" y="1068.79" as="sourcePoint" />
            <mxPoint x="581.940872965256" y="1000.0032034355941" as="targetPoint" />
          </mxGeometry>
        </mxCell>
      </root>
    </mxGraphModel>
  </diagram>
</mxfile>
